<svg xmlns="http://www.w3.org/2000/svg" viewBox="0 0 131.2 131.1"><circle fill="#77BD43" cx="65.7" cy="65.5" r="65.6"/><path fill="#0C8542" d="M107.7 65.5c3.9-4.8 7.7-9.1 14.1-10.4-.2-1.1-.4-2.1-.6-3.2-7.1 1.4-11.5 6.1-15.5 11.1-4.8-5.9-10-11.5-19.8-11.5S70.8 57.1 66.1 63c-4.8-5.9-10-11.5-19.8-11.5s-15 5.6-19.8 11.5c-4.2-5.1-8.7-10-16.3-11.2-.2 1-.4 2.1-.6 3.2 1.7.2 3.1.7 4.5 1.3l-.1 6.8h2.4l.1-5.5c3.1 2 5.5 4.9 8 7.9-2.5 3.1-5.1 6.1-8.3 8.1l.2-8-2.4-.1-.2 9.4c-1.1.5-2.3.8-3.5 1 .2 1.1.5 2.1.8 3.1 7-1.3 11.3-6 15.3-11 4.8 5.9 10 11.5 19.8 11.5S61.2 73.9 66 68c4.8 5.9 10 11.5 19.8 11.5s15.1-5.6 19.8-11.5c3.9 4.8 8 9.4 14.7 10.9.3-1 .5-2.1.8-3.1-5.9-1.4-9.7-5.6-13.4-10.3zm-49.2 6.1l.1-3.3-2.4-.1-.2 5.3c-2.2 1.4-4.7 2.3-7.7 2.6l-.8-11.3-2.5.3.8 11.1c-4-.1-7.2-1.3-9.8-3.1l.3-4.3-2.4-.2-.2 2.6c-1.9-1.7-3.5-3.7-5.2-5.8 2-2.5 4.1-4.9 6.5-6.8l-.7 7 2.4.3.9-9.1c1.9-1 4-1.8 6.6-2l.5 6.6 2.4-.2-.5-6.5c4.1.1 7.2 1.3 9.9 3.1l-.3 6.9 2.4.1.2-5.1c1.9 1.7 3.6 3.7 5.2 5.8-1.7 2.3-3.5 4.4-5.5 6.1zm38 1.3l-1.3-10.3-2.4.3 1.4 11.4c-2.4 1.2-5.1 2-8.4 2h-.7l.3-6.8-2.4-.2-.3 6.7c-2.6-.4-4.8-1.4-6.8-2.6l-1.3-6.5-2.4.5.8 3.6c-1.8-1.6-3.3-3.5-4.9-5.5 1-1.2 2-2.5 3.1-3.6l.6 3.1 2.4-.5-1-4.7c2.8-2.6 6-4.5 10.4-4.9l-.3 11.3 2.4.1.3-11.5c2.2 0 4.1.4 5.9 1l.6 4.2 2.4-.4-.4-2.6c3.7 2 6.4 5.2 9.2 8.6-2.3 2.7-4.5 5.3-7.2 7.3z"/><g fill="#68B246"><path d="M10.8 78.6c0 .1 0 0 0 0zM26.6 62.8l-.2.2c.1 0 .2-.1.2-.2zM131.2 62.4l-9.9-9.9c.2.9.3 1.8.5 2.6-6.3 1.2-10.2 5.6-14.1 10.4 3.7 4.6 7.5 8.9 13.5 10.3-.2 1.1-.5 2.1-.8 3.1-6.7-1.6-10.9-6.2-14.7-10.9-4.8 5.9-10 11.5-19.8 11.5s-15-5.6-19.8-11.5c-4.8 5.9-10 11.5-19.8 11.5S31.2 73.9 26.5 68c-4 4.9-8.3 9.6-15.2 11l52 52c.8 0 1.6.1 2.4.1 36.2 0 65.6-29.4 65.6-65.6-.1-1-.1-2.1-.1-3.1zM10.9 79.1c.1 0 .2 0 .3-.1l-.4-.4c.1.2.1.4.1.5z"/></g></svg>