<svg xmlns="http://www.w3.org/2000/svg" viewBox="0 0 200 200"><circle fill="#77469B" cx="100.2" cy="99.7" r="99.7"/><path fill="#DAE2E5" d="M138.7 99.7c0-16.3-13.2-29.7-29.7-29.7H97.2v11.8H109c9.8 0 17.7 7.9 17.7 17.7s-7.9 17.7-17.7 17.7H70.5v5.9h14.8v17.7H73.4c-3.3 0-5.9 2.6-5.9 5.9h59.3c0-3.3-2.6-5.9-5.9-5.9h-11.8V129c16.2.3 29.6-12.9 29.6-29.3z"/><path fill="#444955" d="M94.3 67.2h-3v17.7h3c1.7 0 3-1.4 3-3V70.2c-.1-1.7-1.5-3-3-3z"/><path fill="#469FCC" d="M73.4 58.2h17.7v35.6H73.4z"/><path fill="#444955" d="M88.4 58.2v-3c0-1.7-1.4-3-3-3h-5.9c-1.7 0-3 1.4-3 3v3h11.9zM76.4 93.8h11.8v11.8H76.4z"/><path opacity=".1" fill="#010101" d="M85.2 129.3H109v11.8H85.2z"/><path fill="#EACA43" d="M67.5 120.5h29.7c3.3 0 5.9-2.6 5.9-5.9H61.6c0 3.2 2.7 5.9 5.9 5.9z"/><path opacity=".1" fill="#010101" d="M102.3 117.5c-1.1 1.7-3 3-5.1 3H70.5v3h26.7c3.3 0 5.9-2.6 5.9-5.9h-.8z"/><g opacity=".3" fill="#010101"><path d="M82.3 93.8h5.9v11.8h-5.9zM85.2 52.3h-3v5.9h5.9v-3c.3-1.5-1.1-2.9-2.9-2.9z"/></g><path opacity=".15" fill="#010101" d="M82.3 58.2h8.9v35.6h-8.9z"/><path opacity=".1" fill="#010101" d="M97.2 70.2h3V82h-3z"/><g><path fill="#733F98" d="M138.7 99.7c0 16.3-13.2 29.7-29.7 29.7v11.8h11.8c3.3 0 5.9 2.6 5.9 5.9H67.9l50.5 50.5c32.6-6.1 59.6-27.9 72.8-57.6l-60.6-60.6c5 5.5 8.1 12.5 8.1 20.3z"/></g></svg>