<svg xmlns="http://www.w3.org/2000/svg" viewBox="0 0 126.9 126.7"><circle fill="#F36B21" cx="63.6" cy="63.3" r="63.4"/><circle fill="#FFF" cx="40.8" cy="56.3" r="5.4"/><circle fill="#FFF" cx="61.8" cy="43.5" r="8"/><path fill="#FFF" d="M86.1 57H83c-3.9 0-7 3.3-7 5.9v1.9c-5-3.4-5.4-5.9-5.6-6.5-.5-2.7-2.8-5.4-6.9-5.4H60c-3.9 0-6.7 2.8-7.2 5.4-.3.8-1.5 3-6.6 6.5-.8-1-2.2-1.8-4.2-1.8h-2.4c-3 0-5.6 2.5-5.6 4.5V82h12V68.8c2 0 3-.3 7-1.2V82h17V67.6c2 .9 4 1.2 6 1.2V82h16V62.9c0-2.6-1.9-5.9-5.9-5.9z"/><circle fill="#FFF" cx="84.5" cy="48.6" r="7"/><path fill="#F15822" d="M91.6 48.6c0 3.9-3.1 7-7 7-.8 0-1.5-.1-2.2-.3-.5.7-.9 1.3-1.4 2 .6-.2 1.3-.3 2-.3h3.1c4 0 5.9 3.3 5.9 5.9V82H76V68.8c-2 0-4-.3-6-1.2V82H53V67.6c-4 .9-5 1.2-7 1.2V82H34l43.2 43.2c23.3-5.1 41.8-23 47.7-45.9L90.3 44.6c.8 1.1 1.3 2.5 1.3 4z"/></svg>