<svg xmlns="http://www.w3.org/2000/svg" viewBox="0 0 126.9 126.7"><circle fill="#36C3F2" cx="63.5" cy="63.3" r="63.5"/><defs><circle id="a" cx="63.5" cy="63.3" r="63.5"/></defs><path fill="#CDCCCC" d="M69.7 96H54c-4.4 0-8-3.6-8-8V78l6.8 1.2V88c0 .7.5 1.2 1.2 1.2h15.7c.7 0 1.2-.5 1.2-1.2v-5.5l6.8 1.2V88c0 4.4-3.6 8-8 8z"/><g opacity=".2" fill="#010101"><path d="M70.9 82.7v3.8l6.8 1.2v-3.8zM52.8 79.4L46 78.2V82l6.8 1.2z"/></g><path fill="#77469B" d="M99.4 88L24.3 74.7v-25l75.1-13.4z"/><path fill="#CDCCCC" d="M26 78c-1.3 0-2.3-1-2.3-2.3V48.6c0-1.3 1-2.3 2.3-2.3 1.3 0 2.3 1 2.3 2.3v27.1c0 1.3-1.1 2.3-2.3 2.3z"/><path fill="#231F20" d="M99.4 37.9c-.1-.5-.2-1-.2-1.6l-4.5.8c1.3 8.2 2 16.7 2 25.1 0 8.4-.7 16.7-2 24.9l4.5.8c.1-.5.1-.9.2-1.4V37.9z" opacity=".2"/><path fill="#CDCCCC" d="M98.5 90.2h-.4c-1.2-.2-2.1-1.4-1.9-2.6 1.4-8.3 2.1-16.8 2.1-25.3s-.7-17.1-2.1-25.5c-.2-1.2.6-2.4 1.9-2.6 1.2-.2 2.4.6 2.6 1.9 1.4 8.6 2.2 17.4 2.2 26.2 0 8.7-.7 17.5-2.1 26-.2 1.1-1.2 1.9-2.3 1.9z"/><g fill="#2CB6EA"><path d="M53.9 89.1h15.7c.7 0 1.2-.5 1.2-1.2v-5l-18.1-3.2v8.2c0 .7.6 1.2 1.2 1.2z"/><path d="M100.7 36c1.4 8.6 2.2 17.4 2.2 26.2 0 8.7-.7 17.5-2.1 26-.2 1.1-1.1 1.9-2.2 1.9h-.4c-1.2-.2-2.1-1.4-1.9-2.6v-.1l-1.5-.3-17.1-3v3.8c0 4.4-3.6 8-8 8H53.9c-4.4 0-8-3.6-8-8v-9.4l-17.7-3.2v.3c0 1-.7 1.9-1.6 2.2l47.9 47.9c29.7-5.3 52.3-31.2 52.3-62.5v-1.6l-26.4-26.4c.1.3.2.6.3.8z"/></g></svg>