<svg xmlns="http://www.w3.org/2000/svg" viewBox="0 38.9 200 122.5"><path fill="#77BC43" d="M125.6 106.1H108V84.9c0-2.9 2.9-5.7 7.2-5.7h3.3c4.5 0 7.2 2.9 7.2 5.7v21.2z"/><circle fill="#77BC43" cx="116.8" cy="68.9" r="7.9"/><path fill="#F26C21" d="M154.5 106.1h-26V73.9c0-4.3 4.1-8.6 10.5-8.6h5c6.4 0 10.5 4.3 10.5 8.6v32.2z"/><circle fill="#F26C21" cx="141.6" cy="50.3" r="11.4"/><path fill="#77BC43" d="M180 106.1h-22.6V78.4c0-3.8 3.6-7.4 9.1-7.4h4.5c5.7 0 9.1 3.6 9.1 7.4l-.1 27.7z"/><circle fill="#77BC43" cx="168.5" cy="57.9" r="10"/><path fill="#F26C21" d="M200 106.1h-17.6V84.9c0-2.9 2.9-5.7 7.2-5.7h3.3c4.5 0 7.2 2.9 7.2 5.7v21.2z"/><circle fill="#F26C21" cx="191.2" cy="68.9" r="7.9"/><path d="M3.3 97.3h2.1l3.3 8.1H6.4l-.4-1.5H2.9l-.5 1.4H0l3.3-8zm2.2 5l-1-2.4-1 2.4h2zM11.9 104.2l1.2-1.4c.7.7 1.7 1 2.6 1 .7 0 1-.2 1-.5 0-.2-.2-.5-1.4-.7-1.7-.5-3.1-1-3.1-2.6 0-1.4 1.2-2.6 3.1-2.6 1.4 0 2.4.5 3.3 1.2l-1.2 1.7c-.7-.5-1.4-.7-2.1-.7-.5 0-.7.2-.7.5 0 .5.2.5 1.4.7 1.9.2 3.1.7 3.1 2.4s-1.2 2.6-3.3 2.6c-1.5-.2-2.7-.7-3.9-1.6zM22.9 101.3c0-2.4 1.9-4.3 4.3-4.3s4.3 1.9 4.3 4.3-1.9 4.3-4.3 4.3c-2.6 0-4.3-1.9-4.3-4.3zm6.4 0c0-1.2-1-2.1-2.1-2.1-1.2 0-2.1 1-2.1 2.1 0 1.2 1 2.1 2.1 2.1 1.2.1 2.1-.9 2.1-2.1zM35.3 101.3c0-2.4 1.9-4.3 4.3-4.3 1.7 0 2.6.7 3.3 1.7l-1.7 1.2c-.5-.5-1-1-1.7-1-1.2 0-1.9 1-1.9 2.1 0 1.2.7 2.1 1.9 2.1 1 0 1.4-.5 1.9-1l1.7 1.2c-.7 1-1.7 1.9-3.6 1.9-2.3.4-4.2-1.5-4.2-3.9zM47 97.3h2.1v8.1H47v-8.1zM56.5 97.3h2.1l3.3 8.1h-2.4L59 104h-3l-.5 1.4h-2.4l3.4-8.1zm1.9 5l-1-2.4-1 2.4h2zM64.8 101.3c0-2.4 1.9-4.3 4.3-4.3 1.7 0 2.6.7 3.3 1.7l-1.7 1.2c-.5-.5-1-1-1.7-1-1.2 0-1.9 1-1.9 2.1 0 1.2.7 2.1 1.9 2.1 1 0 1.4-.5 1.9-1l1.7 1.2c-.7 1.4-1.9 2.1-3.6 2.1-2.3.2-4.2-1.7-4.2-4.1zM76.5 97.3h2.1v8.1h-2.1v-8.1zM83 101.3c0-2.4 1.9-4.3 4.3-4.3s4.3 1.9 4.3 4.3-1.9 4.3-4.3 4.3-4.3-1.9-4.3-4.3zm6.4 0c0-1.2-1-2.1-2.1-2.1s-2.1 1-2.1 2.1c0 1.2 1 2.1 2.1 2.1 1.4.1 2.1-.9 2.1-2.1zm-1.7-6.7l2.1.7-1.7 1.4h-1.4l1-2.1zM95.8 97.3H98l3.3 4.3v-4.3h2.1v8.1h-1.9l-3.6-4.5v4.5h-2.1v-8.1z"/><path fill="none" d="M63.2 123.5v-.2c0-6-3.6-8.3-8.1-8.3h-4.8v26h4.5v-9.1h1l3.1 9.1h4.8l-3.6-10.5c1.6-1.5 3.1-3.7 3.1-7zm-4.8-.3c0 3.1-1.4 4.3-3.3 4.3l-.2-8.6c1.9 0 3.6.7 3.6 4.1v.2zM31.2 114.7l-4.5 26.2H31l.7-5.2h4.1l.7 5H41l-5-26h-4.8zm1 16.9l1.4-8.6 1.4 8.6h-2.8zM11 114.9H6.9v26h4.5v-8.1c4.5-.5 7.9-3.1 7.9-9.1 0-6.2-3.3-8.8-8.3-8.8zm.4 13.6v-9.3c2.1 0 3.3 1.4 3.3 4.8.1 3.1-1.4 4.5-3.3 4.5z"/><path fill="#77BC43" d="M11.4 119.2v9.3c1.9 0 3.3-1.4 3.3-4.5.1-3.4-1.1-4.8-3.3-4.8zM32.2 131.6H35l-1.4-8.6zM54.8 119l.2 8.6c1.9 0 3.3-1.2 3.3-4.3v-.3c.1-3.3-1.6-4-3.5-4zM77.5 131.6h2.8l-1.4-8.6z"/><path fill="#77BC43" d="M0 109.2v36.7h200v-36.7H0zm11.4 23.6v8.1H6.9v-26H11c5 0 8.3 2.6 8.3 8.8 0 6-3.3 8.6-7.9 9.1zm25.1 7.8l-.7-5h-4.1l-.7 5.2h-4.3l4.5-26.2H36l5 26h-4.5zm22.4.3l-3.1-9.1h-1v9.1h-4.5v-26h4.8c4.5 0 8.1 2.4 8.1 8.3v.2c0 3.3-1.4 5.5-3.1 6.9l3.6 10.5h-4.8zm22.9-.3l-1-5.2h-4.1l-.7 5.2h-4.5l5-26h4.8l5 26h-4.5z"/><path d="M96.8 119.2h-3.1v-4.3h11v4.3h-3.1v21.7H97v-21.7h-.2zM113 128.5v-1.4c0-8.6 2.9-12.6 6.9-12.6s6.9 4.1 6.9 12.6v1.4c0 8.6-2.9 12.6-6.9 12.6s-6.9-4-6.9-12.6zm9.3 0v-1.4c0-6.7-1-8.6-2.4-8.6s-2.4 1.9-2.4 8.6v1.4c0 6.7 1 8.6 2.4 8.6s2.4-1.9 2.4-8.6zM137.1 114.9h4.3c5.7 0 9.1 4.3 9.1 12.6v1c0 8.3-3.3 12.6-9.1 12.6h-4.3v-26.2zm4.5 21.7c2.1 0 4.1-1.9 4.1-8.3v-1c0-6.4-1.9-8.3-4.1-8.3h-.2l.2 17.6zM160 128.5v-1.4c0-8.6 2.9-12.6 6.9-12.6 4.1 0 6.9 4.1 6.9 12.6v1.4c0 8.6-2.9 12.6-6.9 12.6-4.1 0-6.9-4-6.9-12.6zm9 0v-1.4c0-6.7-1-8.6-2.4-8.6s-2.4 1.9-2.4 8.6v1.4c0 6.7 1 8.6 2.4 8.6 1.5 0 2.4-1.9 2.4-8.6zM183.1 139.9v-4.8c1.7 1 2.9 1.4 4.1 1.4s2.4-.7 2.4-2.1c0-1.2-.5-2.1-2.6-4.5-3.1-3.6-4.3-5.2-4.3-8.3 0-4.1 2.6-6.7 6.2-6.7 1.9 0 2.9.2 4.1.7v4.8c-1.4-.7-2.1-1.2-3.3-1.2s-2.4.7-2.4 2.1c0 1.2.5 1.7 2.6 4.1 3.6 4.1 4.3 5.7 4.3 8.6 0 4.1-2.9 6.7-6.4 6.7-1.9.2-3.5-.3-4.7-.8zM0 155.4v-4.8h2.4v4.8c0 1.2.7 1.9 1.7 1.9s1.7-.5 1.7-1.7v-4.8h2.4v4.8c0 2.9-1.7 4.1-4.1 4.1S0 158 0 155.4zM13.8 152.3h2.4v1c.5-.5 1-1.2 1.9-1.2 1.4 0 2.4 1 2.4 2.4v4.3h-2.4v-3.6c0-.7-.5-1.2-1-1.2s-1 .5-1 1.2v3.6h-2.4v-6.5zM26 150.2h2.4v1.7H26v-1.7zm0 2.1h2.4v6.7H26v-6.7zM33.8 155.9c0-2.1 1.4-3.6 2.9-3.6 1 0 1.7.5 2.1 1v-3.1h2.4v9.1h-2.4v-1c-.5.5-1 1-2.1 1-1.4-.1-2.9-1.3-2.9-3.4zm5.1 0c0-1-.7-1.4-1.4-1.4s-1.4.7-1.4 1.4c0 1 .7 1.4 1.4 1.4.9 0 1.4-.7 1.4-1.4zM46.5 155.9c0-1.9 1.7-3.6 3.8-3.6 2.1 0 3.6 1.7 3.6 3.6 0 1.9-1.7 3.6-3.8 3.6-1.9-.3-3.6-1.7-3.6-3.6zm5.2 0c0-1-.5-1.4-1.4-1.4-1 0-1.4.7-1.4 1.4s.5 1.4 1.4 1.4c1 0 1.4-.7 1.4-1.4zM58.9 158.3l1-1.4c.7.5 1.7.7 2.4.7.5 0 .5-.2.5-.5 0-.2-.5-.5-1-.5-1.4-.2-2.4-.7-2.4-2.1 0-1.4 1.2-2.1 2.6-2.1 1 0 1.9.2 2.9.7l-.7 1.4c-.7-.5-1.4-.7-1.9-.7s-.5.2-.5.2c0 .2.5.5 1.2.5 1.4.5 2.4.7 2.4 2.1 0 1.4-1.2 2.1-2.6 2.1-2 .5-3 .3-3.9-.4zM77.7 152.3h2.4v1c.5-.5 1-1 2.1-1 1.7 0 2.9 1.4 2.9 3.6 0 2.1-1.4 3.6-2.9 3.6-1 0-1.7-.5-2.1-1v2.9h-2.4v-9.1zm5.3 3.6c0-1-.7-1.4-1.4-1.4s-1.4.7-1.4 1.4c0 1 .7 1.4 1.4 1.4s1.4-.7 1.4-1.4zM90.3 155.9c0-1.9 1.7-3.6 3.8-3.6 2.1 0 3.6 1.7 3.6 3.6 0 1.9-1.7 3.6-3.8 3.6-2.1-.3-3.6-1.7-3.6-3.6zm5.1 0c0-1-.5-1.4-1.4-1.4-1 0-1.4.7-1.4 1.4s.5 1.4 1.4 1.4c.9 0 1.4-.7 1.4-1.4zM103 152.3h2.4v1.4c.5-1 1-1.4 2.1-1.4v2.4h-.2c-1.2 0-1.9.7-1.9 2.1v2.1H103v-6.6zM120.6 150.2h2.4v9.1h-2.4v-9.1zM128.2 157.1c0-1.4 1-2.1 2.6-2.1.7 0 1.2.2 1.7.2 0-.7-.5-1.2-1.4-1.2-.7 0-1.2.2-1.9.5l-.5-1.7c.7-.2 1.7-.5 2.6-.5 1.2 0 1.9.2 2.6.7.5.5.7 1.2.7 2.1v3.8h-2.4v-.7c-.5.5-1.2 1-1.9 1-1.1 0-2.1-.7-2.1-2.1zm4.3-.5v-.2c-.2 0-.5-.2-1-.2-.7 0-1.2.2-1.2.7 0 .5.2.7.7.7 1.1.2 1.5-.3 1.5-1zM147.6 157.8l1.4-1.7c1 .7 1.9 1 2.9 1 .7 0 1-.2 1-.5 0-.5-.2-.5-1.4-.7-1.9-.5-3.3-1-3.3-2.6 0-1.7 1.2-2.9 3.3-2.9 1.4 0 2.6.5 3.6 1.2l-1.2 1.7c-.7-.5-1.7-1-2.4-1-.5 0-1 .2-1 .5 0 .5.2.5 1.4 1 1.9.5 3.3 1.2 3.3 2.6 0 1.7-1.4 2.9-3.6 2.9-1.4-.1-2.9-.5-4-1.5zM160.2 157.1c0-1.4 1-2.1 2.6-2.1.7 0 1.2.2 1.7.2 0-.7-.5-1.2-1.4-1.2-.7 0-1.2.2-1.9.5l-.5-1.7c.7-.2 1.7-.5 2.6-.5 1.2 0 1.9.2 2.6.7.5.5.7 1.2.7 2.1v3.8h-2.4v-.7c-.5.5-1.2 1-1.9 1-1.2 0-2.1-.7-2.1-2.1zm4.3-.5v-.2c-.2 0-.5-.2-1-.2-.7 0-1.2.2-1.2.7 0 .5.2.7.7.7 1 .2 1.5-.3 1.5-1zM172.3 150.2h2.4v9.1h-2.4v-9.1zM180.5 156.9v-4.3h2.4v3.6c0 .7.5 1.2 1 1.2s1-.5 1-1.2v-3.6h2.4v6.7h-2.4v-1c-.5.5-1 1-1.9 1-1.8-.1-2.5-1-2.5-2.4zM192.4 155.9c0-2.1 1.4-3.6 2.9-3.6 1 0 1.7.5 2.1 1v-3.1h2.4v9.1h-2.4v-1c-.5.5-1 1-2.1 1-1.5-.1-2.9-1.3-2.9-3.4zm5 0c0-1-.7-1.4-1.4-1.4s-1.4.7-1.4 1.4c0 1 .7 1.4 1.4 1.4.9 0 1.4-.7 1.4-1.4z"/></svg>