<svg xmlns="http://www.w3.org/2000/svg" viewBox="0 0 136.5 210"><g fill="#636665"><path d="M68.3 97.7H32V52.6c0-6.2 5.8-12.1 14.6-12.1h7.1c9.2 0 14.6 5.9 14.6 12.1v45.1zM103.9 97.7H72.1V58.9c0-5.3 5.1-10.4 12.8-10.4h6.2c8 0 12.8 5.1 12.8 10.4v38.8zM132.1 97.7h-24.6V68.1c0-4 3.9-7.9 9.9-7.9h4.8c6.2 0 9.9 3.9 9.9 7.9v29.6zM27.9 97.7H3.3V68.1c0-4 3.9-7.9 9.9-7.9H18c6.2 0 9.9 3.9 9.9 7.9v29.6z"/><circle cx="50.2" cy="19.8" r="16.2"/><circle cx="88" cy="30.2" r="14.1"/><circle cx="119.8" cy="45.6" r="10.9"/><circle cx="15.6" cy="45.6" r="10.9"/><path d="M65 160.9h-.2v20.7h.2c2.5 0 4.6-2.2 4.6-9.8v-1c0-7.7-2.1-9.9-4.6-9.9zM81.5 126.2h-.1v9.8h.3c2.2 0 3.9-1.3 3.9-4.8v-.3c-.1-3.7-1.8-4.7-4.1-4.7zM40.4 160.9c-1.6 0-2.6 2.1-2.6 9.7v1.5c0 7.6 1.1 9.7 2.6 9.7 1.6 0 2.6-2.1 2.6-9.7v-1.5c0-7.6-1-9.7-2.6-9.7zM93.6 160.9c-1.6 0-2.6 2.1-2.6 9.7v1.5c0 7.6 1.1 9.7 2.6 9.7 1.6 0 2.6-2.1 2.6-9.7v-1.5c0-7.6-1-9.7-2.6-9.7zM19.6 126.2h-.2v10.7c2.2-.1 3.8-1.7 3.8-5.3v-.1c.1-3.7-1.3-5.3-3.6-5.3zM49.1 140.4h3.1l-1.5-9.7zM114.6 130.7l-1.6 9.7h3.2z"/><path d="M3.4 116.3v75.1h128.7v-75.1H3.4zm19.4 45.2h-3.6v24.7H14v-24.7h-3.6v-4.9h12.4v4.9zm5.7-30.1c0 6.7-3.7 9.8-9 10.2v9.3h-5.2v-29.6h4.6c5.6.1 9.6 3.1 9.6 10.1zm19.8 40.7c0 9.8-3.2 14.5-7.9 14.5s-7.9-4.7-7.9-14.5v-1.5c0-9.8 3.2-14.5 7.9-14.5s7.9 4.7 7.9 14.5v1.5zM54 151l-1-5.9h-4.7l-.9 5.9h-5l5.6-29.7h5.5l5.6 29.7H54zm20.9 20.8c0 9.8-3.8 14.7-10.4 14.7h-4.8v-30.4h4.8c6.6 0 10.4 4.9 10.4 14.7v1zm7.5-31.1c-.1 0-.1 0 0 0h-1V151h-5.2v-29.6h5.3c5.3 0 9.1 2.8 9.1 9.4v.4c0 3.8-1.5 6.3-3.5 7.8l4 12h-5.5l-3.2-10.3zm19.1 31.4c0 9.8-3.2 14.5-7.9 14.5s-7.9-4.7-7.9-14.5v-1.5c0-9.8 3.2-14.5 7.9-14.5s7.9 4.7 7.9 14.5v1.5zm4.8-21.1l5.6-29.7h5.5L123 151h-5.2l-1-5.9h-4.7l-.9 5.9h-4.9zm18.3 27.6c0 4.7-3.3 7.7-7.3 7.7-2 0-3.8-.5-5.2-1.2v-5.4c1.8 1.1 3.3 1.6 4.7 1.6 1.5 0 2.7-.7 2.7-2.5v-.1c0-1.4-.4-2.4-2.9-5.2-3.5-4-4.9-5.9-4.9-9.5v-.1c0-4.7 3.1-7.7 7.2-7.7 2.1 0 3.3.3 4.6.9v5.4c-1.6-.9-2.6-1.4-3.9-1.4-1.4 0-2.7.9-2.7 2.5v.1c0 1.4.4 1.9 2.9 4.7 3.9 4.9 4.8 6.8 4.8 10.2zM7.1 205c-2.3 0-3.7-1.3-3.7-3.8v-5.3h1.9v5.2c0 1.4.7 2.1 1.8 2.1s1.8-.7 1.8-2.1v-5.3h1.9v5.2c0 2.7-1.4 4-3.7 4zM17.2 204.9v-3.7c0-.9-.4-1.3-1.1-1.3-.7 0-1.2.5-1.2 1.3v3.7H13v-6.5h1.9v.9c.4-.5 1-1 1.9-1 1.4 0 2.2.9 2.2 2.4v4.2h-1.8zM21.2 197.6V196h2v1.6h-2zm0 7.3v-6.5h1.9v6.5h-1.9zM30 204.9v-.9c-.5.6-1.1 1.1-2 1.1-1.5 0-3-1.2-3-3.4s1.4-3.4 3-3.4c1 0 1.6.5 2 1v-3.2h1.9v8.9H30zm0-3.3c0-1.1-.7-1.8-1.6-1.8-.9 0-1.6.7-1.6 1.8s.7 1.8 1.6 1.8c.9 0 1.6-.7 1.6-1.8zM37.2 205c-2 0-3.5-1.5-3.5-3.4s1.5-3.4 3.6-3.4c2 0 3.5 1.5 3.5 3.4s-1.5 3.4-3.6 3.4zm1.8-3.4c0-1-.7-1.8-1.7-1.8-1.1 0-1.7.8-1.7 1.8s.7 1.8 1.7 1.8 1.7-.8 1.7-1.8zM44.9 205c-.9 0-1.9-.3-2.8-1l.8-1.2c.7.5 1.5.8 2.1.8.5 0 .8-.2.8-.5 0-.4-.6-.5-1.4-.8-.9-.3-2-.7-2-2s1.1-2.1 2.4-2.1c.8 0 1.7.3 2.4.8l-.7 1.3c-.6-.4-1.3-.6-1.8-.6s-.7.2-.7.5c0 .4.6.5 1.3.8.9.3 2 .7 2 1.9.1 1.4-1 2.1-2.4 2.1zM57.3 205c-1 0-1.6-.5-2-1v2.8h-1.9v-8.5h1.9v.9c.5-.6 1.1-1.1 2-1.1 1.5 0 3 1.2 3 3.4 0 2.3-1.5 3.5-3 3.5zm1.1-3.4c0-1.1-.7-1.8-1.6-1.8-.9 0-1.6.7-1.6 1.8s.7 1.8 1.6 1.8c.9 0 1.6-.7 1.6-1.8zM65.3 205c-2 0-3.5-1.5-3.5-3.4s1.5-3.4 3.6-3.4c2 0 3.5 1.5 3.5 3.4s-1.5 3.4-3.6 3.4zm1.8-3.4c0-1-.7-1.8-1.7-1.8-1.1 0-1.7.8-1.7 1.8s.7 1.8 1.7 1.8 1.7-.8 1.7-1.8zM74.6 200.1c-1.2 0-2 .7-2 2.3v2.4h-1.9v-6.5h1.9v1.3c.4-.9 1-1.5 2.1-1.4l-.1 1.9zM81.2 204.9V196h1.9v8.9h-1.9zM89.1 204.9v-.7c-.5.5-1.1.8-2 .8-1.2 0-2.2-.7-2.2-2 0-1.4 1.1-2.1 2.6-2.1.7 0 1.1.1 1.6.3v-.2c0-.8-.5-1.2-1.4-1.2-.7 0-1.2.1-1.8.4l-.5-1.4c.7-.3 1.4-.5 2.5-.5 2 0 2.9 1.1 2.9 2.8v3.8h-1.7zm.1-2.7c-.3-.1-.7-.2-1.2-.2-.8 0-1.3.3-1.3.9 0 .5.4.8 1 .8.9 0 1.5-.5 1.5-1.1v-.4zM100.4 205c-1.3 0-2.6-.5-3.6-1.4l1.1-1.3c.8.6 1.6 1 2.6 1 .8 0 1.2-.3 1.2-.8s-.3-.7-1.7-1.1c-1.7-.4-2.8-.9-2.8-2.6 0-1.6 1.2-2.6 3-2.6 1.2 0 2.3.4 3.2 1.1l-1 1.4c-.8-.5-1.5-.8-2.2-.8-.7 0-1.1.3-1.1.7 0 .6.4.7 1.8 1.1 1.7.5 2.7 1.1 2.7 2.6-.1 1.7-1.4 2.7-3.2 2.7zM109.3 204.9v-.7c-.4.5-1.1.8-2 .8-1.2 0-2.2-.7-2.2-2 0-1.4 1.1-2.1 2.6-2.1.7 0 1.1.1 1.6.3v-.2c0-.8-.5-1.2-1.4-1.2-.7 0-1.2.1-1.8.4l-.5-1.4c.7-.3 1.4-.5 2.5-.5 2 0 2.9 1.1 2.9 2.8v3.8h-1.7zm0-2.7c-.3-.1-.7-.2-1.2-.2-.8 0-1.3.3-1.3.9 0 .5.4.8 1 .8.9 0 1.5-.5 1.5-1.1v-.4zM113.3 204.9V196h1.9v8.9h-1.9zM121.5 204.9v-.9c-.4.5-1 1.1-1.9 1.1-1.4 0-2.2-.9-2.2-2.4v-4.2h1.9v3.7c0 .9.4 1.3 1.1 1.3.7 0 1.2-.5 1.2-1.3v-3.7h1.9v6.5h-2zM130.2 204.9v-.9c-.5.6-1.1 1.1-2 1.1-1.5 0-3-1.2-3-3.4s1.4-3.4 3-3.4c1 0 1.6.5 2 1v-3.2h1.9v8.9h-1.9zm0-3.3c0-1.1-.7-1.8-1.6-1.8-.9 0-1.6.7-1.6 1.8s.7 1.8 1.6 1.8c.9 0 1.6-.7 1.6-1.8zM7.3 102.3h2.5l3.9 9.3H11l-.7-1.6H6.7l-.7 1.6H3.3l4-9.3zm2.2 5.6l-1-2.6-1 2.6h2zM18.5 110.2l1.4-1.7c.9.7 1.9 1.1 3 1.1.7 0 1.1-.2 1.1-.6 0-.4-.3-.6-1.6-.9-2-.4-3.5-1-3.5-2.9 0-1.7 1.4-2.9 3.6-2.9 1.6 0 2.8.4 3.8 1.2l-1.3 1.8c-.8-.6-1.8-.9-2.6-.9-.6 0-.9.3-.9.6 0 .4.3.6 1.6.9 2.1.5 3.4 1.1 3.4 2.9 0 1.9-1.5 3-3.7 3-1.6-.1-3.2-.6-4.3-1.6zM30.8 107c0-2.7 2.1-4.8 5-4.8 2.8 0 4.9 2.1 4.9 4.8 0 2.6-2.1 4.8-5 4.8s-4.9-2.2-4.9-4.8zm7.3 0c0-1.4-1-2.5-2.4-2.5s-2.3 1.1-2.3 2.5c0 1.3 1 2.5 2.4 2.5 1.4-.1 2.3-1.2 2.3-2.5zM45.4 107c0-2.7 2.1-4.8 4.9-4.8 1.9 0 3.1.8 3.9 1.9l-1.9 1.5c-.5-.7-1.1-1.1-2-1.1-1.3 0-2.2 1.1-2.2 2.4 0 1.4.9 2.5 2.2 2.5 1 0 1.5-.4 2.1-1.1l1.9 1.4c-.9 1.2-2 2.1-4.1 2.1-2.7-.1-4.8-2.1-4.8-4.8zM60.2 102.3h2.6v9.2h-2.6v-9.2zM72.7 102.3h2.5l3.9 9.3h-2.7l-.7-1.6h-3.6l-.7 1.6h-2.7l4-9.3zm2.2 5.6l-1-2.6-1 2.6h2zM84.4 107c0-2.7 2.1-4.8 4.9-4.8 1.9 0 3.1.8 3.9 1.9l-1.9 1.5c-.5-.7-1.1-1.1-2-1.1-1.3 0-2.2 1.1-2.2 2.4 0 1.4.9 2.5 2.2 2.5 1 0 1.5-.4 2.1-1.1l1.9 1.4c-.9 1.2-2 2.1-4.1 2.1-2.7-.1-4.8-2.1-4.8-4.8zM100 102.3h2.6v9.2H100v-9.2zM108.7 107c0-2.7 2.1-4.8 5-4.8 2.8 0 4.9 2.1 4.9 4.8 0 2.6-2.1 4.8-5 4.8-2.8-.1-4.9-2.2-4.9-4.8zm7.3 0c0-1.4-1-2.5-2.4-2.5s-2.3 1.1-2.3 2.5c0 1.3 1 2.5 2.4 2.5 1.4-.1 2.3-1.2 2.3-2.5zm-1.8-7.7l2.3.8-1.9 1.7h-1.8l1.4-2.5zM123.4 102.3h2.4l3.8 4.9v-4.9h2.5v9.2h-2.2l-3.9-5.1v5.1h-2.5v-9.2z"/></g></svg>