<svg xmlns="http://www.w3.org/2000/svg" viewBox="0 0 388.1 407.8"><path fill="#1085BF" d="M203.9 398.7c-4.9-2-9.3-3.8-13.7-5.7-7.9-3.3-15.6-7-23.7-9.8-9.3-3.2-18.8-4.4-28.9-3-7.6 1.1-15.6.9-23.3.2-8.6-.7-17.2-2.1-25.5-4.1-4.7-1.1-9-3.8-13.4-5.8-17.9-7.9-61.4-42.2-68-47.4L3 319.8c1.1-1.5 14.8-48 15.1-50.4.2-1.5-1.2-3.3-2.3-4.7-2.7-3.8-5.7-7.3-8.5-11.1-1.5-2.1-1.7-4.3-.3-6.7 13.8-23.2 27.5-46.4 41.1-69.7 1.6-2.7 3.5-4.1 7-4.1 37 .2 73.6.3 110.6.3 1.9 0 1.1-10.1.8-11.3-.3-1 6.7-13.1 6-13.6 1.1-.9-15.2-8.9-15.6-8.9-2 0-8.7-22.1-11-23.6-3.3-1.4-34.6-22.2-34.6-22.2-.4-.5-31.2-33-32.2-33.6l.3-.8c.8 0 1.7-.1 2.5-.1 10.7 0 21.4.1 32.1.1 1.1 0 2.1.1 3.2.3 2.3.4 3.5-.2 3.4-2.7-.1-10.3.2-42.6.2-48.5 0-2.1.9-2.9 2.8-3.1.6-.1 1.1 0 1.7 0 18.2 0 138 .2 155.9 0 2.3 0 3 .6 3 2.9v177.3c-.2 3.5-.6 4.5 4.5 5 5.8-.1 21 1.4 24.4-.1.7-.3 13.9 2.4 15.8 6.2.3.7 10.7 8.8 10.7 9.8 0 .7.5 1.3.8 2 .9-.4 6.8-11.4 6.3-13.6 1.9-.1 3.7-.2 5.8-.4-.5-.6-.6-1-.9-1.2-3-2.4-6.1-4.8-9.1-7.3-.6-.5-.9-1.3-1.3-2 .9-.1 2.1-.6 2.7-.3 2.7 1.6 5.3 3.4 7.8 5.4 3.4 2.7 7 4.9 10.9 6.8 3.3 1.6 6.3 4 9.4 6.1 1.9 1.3 3.7 2.7 5.4 3.9-.3.8-.7 1.8-1.1 3-2.1.6-74.3 56.3-78.8 57.9-4.1 1.5-11.1 19.8-11.5 20.3-2.2 2.6 5.5 25.4 5.5 26.3 0 3.8-15.3 11.9-15.6 12.1-3.5 2.3-23.1 7.7-23.5 8-.7.6-16.5 33-16.6 33.9-.1.6 0 1.6-.2 1.7-.6.2-32.3 27.5-31.7 29.6z"/></svg>